<svg width="33" height="32" viewBox="0 0 33 32" fill="none" xmlns="http://www.w3.org/2000/svg">
<g id="Frame">
<g id="SVGRepo_iconCarrier">
<path id="Vector" fill-rule="evenodd" clip-rule="evenodd" d="M23.6395 29.6433C20.946 28.9685 15.432 27.066 10.4332 22.0672C5.43437 17.0684 3.5319 11.5544 2.85706 8.86091C2.46925 7.31303 3.16761 5.81936 4.35175 4.97354L7.45609 2.75615C9.27246 1.45875 11.7993 1.899 13.0698 3.73426L15.0242 6.55726C15.8538 7.75558 15.5676 9.39798 14.3816 10.2451L12.8233 11.3582C13.0591 12.2604 13.7927 14.113 16.09 16.4104C18.3874 18.7077 20.24 19.4412 21.1422 19.677L22.2552 18.1186C23.1024 16.9328 24.7448 16.6465 25.9431 17.4761L28.7662 19.4305C30.6014 20.7012 31.0416 23.2278 29.7442 25.0442L27.5268 28.1486C26.681 29.3328 25.1874 30.0312 23.6395 29.6433ZM12.3188 20.1816C16.8647 24.7274 21.8812 26.4537 24.2875 27.0566C24.6392 27.1446 25.0644 27.008 25.3568 26.5986L27.5743 23.4942C28.0067 22.8889 27.86 22.0466 27.2482 21.623L24.4252 19.6686L23.2307 21.341C22.7426 22.0245 21.8398 22.5605 20.7886 22.3337C19.4766 22.0506 17.0512 21.1428 14.2044 18.296C11.3576 15.4492 10.4498 13.0238 10.1667 11.7118C9.93986 10.6606 10.4759 9.75786 11.1594 9.26968L12.8317 8.07515L10.8773 5.25215C10.4538 4.64039 9.61151 4.49364 9.00606 4.92611L5.90173 7.1435C5.49234 7.43591 5.35566 7.86111 5.44378 8.21282C6.04669 10.6192 7.77295 15.6357 12.3188 20.1816Z" fill="#00397B" stroke="#00397B" stroke-width="0.00256"/>
</g>
</g>
</svg>
