<svg width="32" height="32" viewBox="0 0 32 32" fill="none" xmlns="http://www.w3.org/2000/svg">
<g id="Frame" clip-path="url(#clip0_700_1815)">
<g id="SVGRepo_iconCarrier">
<path id="Vector" d="M10.2402 8.32031C9.58422 8.32031 9.12647 8.79987 9.12647 9.48531C9.12647 10.2988 9.75852 11.3035 10.7377 12.0466C11.5755 12.6821 13.0581 13.4403 15.3602 13.4403C18.5858 13.4403 19.9598 12.9125 20.9627 12.5278C21.5189 12.3147 21.9211 12.1603 22.499 12.1603C24.0593 12.1603 26.8603 13.1402 27.4165 16.6403H30.4802H31.3602H31.8815C31.2613 11.2624 27.958 8.32031 22.4002 8.32031H10.2402ZM18.4527 15.3728C17.6348 15.3728 16.9504 15.903 16.7277 16.6403L23.5865 16.6328C23.3574 15.9058 22.6774 15.3728 21.8665 15.3728H18.4527ZM17.3002 17.9203C16.934 17.9203 16.5713 17.935 16.2115 17.9616C16.1551 17.9658 16.0991 17.9754 16.0427 17.9803C15.7272 18.0074 15.4135 18.0425 15.1027 18.0903C15.0727 18.095 15.0428 18.1016 15.0127 18.1066C10.379 18.8501 6.26016 21.9062 2.33522 27.5203H2.34022C1.60536 28.5657 0.872941 29.7026 0.142725 30.9466C0.0547594 31.0512 0.00263036 31.1814 -0.0060253 31.3178C-0.0154501 31.4189 -0.000690553 31.5208 0.0370344 31.6151C0.0747594 31.7093 0.134367 31.7932 0.210936 31.8599C0.287504 31.9266 0.378836 31.9741 0.477389 31.9985C0.575941 32.0229 0.678887 32.0235 0.777725 32.0003H30.7202C31.4198 32.0003 32.0002 31.4199 32.0002 30.7203V24.8191V18.6678C32.016 18.5752 32.0112 18.4803 31.9862 18.3898C31.9612 18.2993 31.9165 18.2154 31.8555 18.144C31.7944 18.0727 31.7183 18.0157 31.6328 17.977C31.5472 17.9383 31.4541 17.919 31.3602 17.9203H17.3002ZM15.3602 22.4003C16.0668 22.4003 16.6402 22.9738 16.6402 23.6803C16.6402 24.3869 16.0668 24.9603 15.3602 24.9603C14.6537 24.9603 14.0802 24.3869 14.0802 23.6803C14.0802 22.9738 14.6537 22.4003 15.3602 22.4003ZM19.8402 22.4003C20.5468 22.4003 21.1202 22.9738 21.1202 23.6803C21.1202 24.3869 20.5468 24.9603 19.8402 24.9603C19.1337 24.9603 18.5602 24.3869 18.5602 23.6803C18.5602 22.9738 19.1337 22.4003 19.8402 22.4003ZM24.3202 22.4003C25.0268 22.4003 25.6002 22.9738 25.6002 23.6803C25.6002 24.3869 25.0268 24.9603 24.3202 24.9603C23.6137 24.9603 23.0402 24.3869 23.0402 23.6803C23.0402 22.9738 23.6137 22.4003 24.3202 22.4003ZM30.7202 28.1441V30.7203H1.77772C2.33678 29.8061 2.89406 28.9495 3.44897 28.1603H30.6402C30.6687 28.1603 30.6927 28.1476 30.7202 28.1441Z" fill="#00397B"/>
</g>
</g>
<defs>
<clipPath id="clip0_700_1815">
<rect width="32" height="32" fill="white"/>
</clipPath>
</defs>
</svg>
