<svg width="33" height="32" viewBox="0 0 33 32" fill="none" xmlns="http://www.w3.org/2000/svg">
<g id="Frame">
<g id="SVGRepo_iconCarrier">
<path id="Vector" d="M25.9406 20.9611C25.1539 16.2544 20.6339 12.4277 15.8606 12.4277C10.6739 12.4277 6.11386 16.6277 5.67386 21.8011C5.50053 23.8011 6.14053 25.6944 7.46053 27.1211C8.7672 28.5477 10.6072 29.3344 12.6072 29.3344H18.8472C21.1006 29.3344 23.0739 28.4544 24.4206 26.8677C25.7672 25.2811 26.3006 23.1744 25.9406 20.9611Z" fill="#00397B" stroke="#00397B" stroke-width="0.00256"/>
<path id="Vector_2" d="M14.206 10.4803C16.3636 10.4803 18.1126 8.73125 18.1126 6.57366C18.1126 4.41607 16.3636 2.66699 14.206 2.66699C12.0484 2.66699 10.2993 4.41607 10.2993 6.57366C10.2993 8.73125 12.0484 10.4803 14.206 10.4803Z" fill="#00397B" stroke="#00397B" stroke-width="0.00256"/>
<path id="Vector_3" d="M23.0868 12.0379C24.8836 12.0379 26.3402 10.5813 26.3402 8.78458C26.3402 6.98781 24.8836 5.53125 23.0868 5.53125C21.29 5.53125 19.8335 6.98781 19.8335 8.78458C19.8335 10.5813 21.29 12.0379 23.0868 12.0379Z" fill="#00397B" stroke="#00397B" stroke-width="0.00256"/>
<path id="Vector_4" d="M27.8993 17.2421C29.3353 17.2421 30.4993 16.0779 30.4993 14.6419C30.4993 13.206 29.3353 12.042 27.8993 12.042C26.4635 12.042 25.2993 13.206 25.2993 14.6419C25.2993 16.0779 26.4635 17.2421 27.8993 17.2421Z" fill="#00397B" stroke="#00397B" stroke-width="0.00256"/>
<path id="Vector_5" d="M5.75333 14.6425C7.55009 14.6425 9.00667 13.1858 9.00667 11.3891C9.00667 9.59232 7.55009 8.13574 5.75333 8.13574C3.95657 8.13574 2.5 9.59232 2.5 11.3891C2.5 13.1858 3.95657 14.6425 5.75333 14.6425Z" fill="#00397B" stroke="#00397B" stroke-width="0.00256"/>
</g>
</g>
</svg>
