<svg width="33" height="32" viewBox="0 0 33 32" fill="none" xmlns="http://www.w3.org/2000/svg">
<g id="Frame" clip-path="url(#clip0_700_1800)">
<g id="SVGRepo_iconCarrier">
<path id="Vector" d="M21.8335 8L25.8335 13.3333H28.5002C29.9802 13.3333 31.1668 14.52 31.1668 16V20H28.5002C28.5002 22.2133 26.7135 24 24.5002 24C22.2868 24 20.5002 22.2133 20.5002 20H12.5002C12.5002 22.2133 10.7135 24 8.50016 24C6.28683 24 4.50016 22.2133 4.50016 20H1.8335V16C1.8335 14.52 3.02016 13.3333 4.50016 13.3333L8.50016 8H21.8335ZM14.5002 10H9.50016L6.98016 13.3333H14.5002V10ZM16.5002 10V13.3333H23.3535L20.8335 10H16.5002ZM8.50016 18C7.3935 18 6.50016 18.8933 6.50016 20C6.50016 21.1067 7.3935 22 8.50016 22C9.60683 22 10.5002 21.1067 10.5002 20C10.5002 18.8933 9.60683 18 8.50016 18ZM24.5002 18C23.3935 18 22.5002 18.8933 22.5002 20C22.5002 21.1067 23.3935 22 24.5002 22C25.6068 22 26.5002 21.1067 26.5002 20C26.5002 18.8933 25.6068 18 24.5002 18Z" fill="#00397B" stroke="#00397B" stroke-width="0.00256"/>
<path id="Vector_2" d="M32.5 0H0.5V32H32.5V0Z" stroke="#00397B" stroke-width="0.00256"/>
</g>
</g>
<defs>
<clipPath id="clip0_700_1800">
<rect width="32" height="32" fill="white" transform="translate(0.5)"/>
</clipPath>
</defs>
</svg>
