<svg width="33" height="32" viewBox="0 0 33 32" fill="none" xmlns="http://www.w3.org/2000/svg">
<g id="Frame">
<g id="SVGRepo_iconCarrier">
<path id="Vector" fill-rule="evenodd" clip-rule="evenodd" d="M4.24293 14.4105C11.012 7.6414 21.9869 7.6414 28.756 14.4105C29.2767 14.9311 30.1209 14.9311 30.6416 14.4105C31.1623 13.8898 31.1623 13.0456 30.6416 12.5249C22.8311 4.71437 10.1678 4.71437 2.35732 12.5249C1.83662 13.0456 1.83662 13.8898 2.35732 14.4105C2.87802 14.9311 3.72224 14.9311 4.24293 14.4105ZM8.01417 18.1817C12.7005 13.4954 20.2984 13.4954 24.9848 18.1817C25.5055 18.7025 26.3496 18.7025 26.8704 18.1817C27.3911 17.661 27.3911 16.8167 26.8704 16.2961C21.1427 10.5684 11.8563 10.5684 6.12856 16.2961C5.60785 16.8167 5.60785 17.661 6.12856 18.1817C6.64925 18.7025 7.49348 18.7025 8.01417 18.1817ZM11.7854 21.953C14.3889 19.3494 18.61 19.3494 21.2135 21.953C21.7343 22.4737 22.5784 22.4737 23.0991 21.953C23.6199 21.4322 23.6199 20.5881 23.0991 20.0674C19.4543 16.4225 13.5447 16.4225 9.89978 20.0674C9.37909 20.5881 9.37909 21.4322 9.89978 21.953C10.4205 22.4737 11.2647 22.4737 11.7854 21.953ZM13.6708 23.8386C15.2329 22.2765 17.7656 22.2765 19.3276 23.8386C19.8484 24.3593 19.8484 25.2035 19.3276 25.7242L17.442 27.6098C16.9213 28.1305 16.0771 28.1305 15.5564 27.6098L13.6708 25.7242C13.1501 25.2035 13.1501 24.3593 13.6708 23.8386Z" fill="#00397B" stroke="#00397B" stroke-width="0.00256"/>
</g>
</g>
</svg>
