<svg width="33" height="32" viewBox="0 0 33 32" fill="none" xmlns="http://www.w3.org/2000/svg">
<g id="Capa_1" clip-path="url(#clip0_700_1777)">
<g id="SVGRepo_iconCarrier">
<g id="Group">
<g id="Group_2">
<path id="Vector" d="M16.8895 1.81934C21.0253 1.81934 24.7177 3.74095 27.1312 6.73306L25.5468 7.85276L30.533 9.55495L30.0146 4.69754L28.6185 5.68327C25.8724 2.22451 21.6382 0 16.8895 0C14.5511 0 12.3363 0.539784 10.3623 1.49897L10.9435 3.24388C12.7311 2.33518 14.7505 1.81934 16.8895 1.81934Z" fill="#00397B" stroke="#00397B" stroke-width="0.00256"/>
<path id="Vector_2" d="M29.948 18.3584C29.4904 20.3117 28.5836 22.188 27.205 23.8216C24.5378 26.9839 20.6894 28.567 16.8449 28.4836L17.0119 26.5497L12.4956 29.2635L16.542 31.9999L16.6896 30.2964C21.1024 30.4265 25.5346 28.624 28.5959 24.9957C30.104 23.2074 31.1182 21.1673 31.6579 19.0393L29.948 18.3584Z" fill="#00397B" stroke="#00397B" stroke-width="0.00256"/>
<path id="Vector_3" d="M4.14494 20.3357C2.57413 16.5106 2.94887 12.3651 4.80122 8.99505L6.43805 10.0371L6.11897 4.7771L1.8227 7.10063L3.26536 8.01839C1.10946 11.8713 0.658993 16.6349 2.4628 21.0269C3.35015 23.1919 4.69055 25.0339 6.32802 26.4966L7.72149 25.2954C6.20116 23.9873 4.95655 22.3143 4.14494 20.3357Z" fill="#00397B" stroke="#00397B" stroke-width="0.00256"/>
<path id="Vector_4" d="M16.8906 24.9802L17.1255 24.9601C17.1372 24.9601 17.1469 24.9614 17.1579 24.9614C20.3662 24.9614 23.2139 23.3984 24.9835 20.9946C25.2928 20.5745 25.5666 20.1273 25.8061 19.66C26.3426 18.6121 26.6954 17.4543 26.8177 16.2284C26.85 15.9106 26.8662 15.5883 26.8662 15.2621C26.8662 15.2129 26.863 15.1637 26.8623 15.1139C26.8488 14.2233 26.7141 13.3612 26.474 12.5431C26.3853 12.2409 26.2831 11.9457 26.1666 11.6564C25.9303 11.0701 25.6391 10.5108 25.2967 9.98725C25.142 9.74972 24.977 9.5193 24.8022 9.29731C24.3239 8.68698 23.7744 8.13554 23.1667 7.65465C22.9583 7.49026 22.7441 7.33298 22.5227 7.18542C20.9843 6.16151 19.1384 5.56348 17.1559 5.56348C15.4007 5.56348 13.7548 6.03401 12.3322 6.8508C12.0985 6.98543 11.8707 7.12846 11.6494 7.28056C11.0248 7.71226 10.452 8.2145 9.94458 8.77759C9.74847 8.99441 9.56207 9.22029 9.38668 9.45393C8.89996 10.1018 8.49415 10.8125 8.1809 11.5704C8.06052 11.8603 7.95502 12.1567 7.86376 12.4603C7.61652 13.2738 7.47672 14.1321 7.45471 15.0194C7.45277 15.101 7.44824 15.1812 7.44824 15.2628C7.44824 15.5592 7.46378 15.8517 7.48966 16.1404C7.5874 17.2226 7.86376 18.2516 8.28769 19.2011C8.50839 19.6949 8.76728 20.1661 9.06371 20.6127C10.7568 23.1608 13.6227 24.8617 16.8854 24.9523C16.8899 24.9666 16.8906 24.9776 16.8906 24.9802ZM17.3844 19.4218C18.4323 19.4102 19.4445 19.3047 20.4141 19.1247C20.1849 20.0943 19.8885 20.968 19.5914 21.7072C18.906 21.7887 18.2025 21.836 17.4847 21.8392C17.4485 21.115 17.4122 20.2969 17.3844 19.4218ZM18.4465 24.0611C18.1766 24.1012 17.9028 24.1278 17.6258 24.142C17.5986 23.7582 17.5643 23.2456 17.5294 22.6353C18.108 22.6314 18.6756 22.601 19.2329 22.5466C18.8899 23.2935 18.5895 23.821 18.4465 24.0611ZM19.8659 23.7388C19.7403 23.7789 19.6122 23.8126 19.4846 23.8475C19.6795 23.4838 19.917 23.0055 20.1629 22.4333C20.5221 22.3803 20.8775 22.3214 21.225 22.2495C20.6173 23.0055 20.0892 23.5278 19.8659 23.7388ZM20.5053 21.5745C20.7933 20.8023 21.0723 19.9169 21.2781 18.939C22.0664 18.7481 22.814 18.5041 23.5194 18.2122C23.1266 19.3662 22.5447 20.403 21.9564 21.2638C21.4872 21.3874 21.0011 21.489 20.5053 21.5745ZM21.7603 22.8702C21.9894 22.5913 22.2315 22.28 22.4742 21.9389C22.7661 21.8554 23.0547 21.7667 23.3369 21.6709C22.8599 22.1279 22.3285 22.5265 21.7603 22.8702ZM24.4424 20.3823C24.0294 20.5706 23.5958 20.7402 23.1518 20.8942C23.6955 19.9797 24.1867 18.9235 24.4896 17.7643C24.9899 17.5086 25.4715 17.2361 25.9096 16.9319C25.6695 18.1979 25.1595 19.3674 24.4424 20.3823ZM26.0708 15.2615C26.0708 15.4621 26.0617 15.6595 26.0488 15.8569C25.6371 16.187 25.1847 16.4925 24.6974 16.7727C24.7738 16.2763 24.8152 15.7682 24.8061 15.2459C24.7996 14.8647 24.7653 14.4913 24.7103 14.1243C25.1181 13.8453 25.4954 13.5463 25.8333 13.2266C25.9866 13.8809 26.0708 14.5612 26.0708 15.2615ZM25.5854 12.3697C25.2786 12.6946 24.9284 12.9994 24.5453 13.2829C24.3848 12.6305 24.1589 12.0059 23.8922 11.415C24.2126 11.1717 24.5084 10.9115 24.7686 10.6338C25.1006 11.1768 25.375 11.7587 25.5854 12.3697ZM22.6871 8.28634C23.2994 8.77241 23.8489 9.33549 24.3155 9.9633C24.089 10.2222 23.8282 10.4662 23.5401 10.696C23.1499 9.95877 22.7078 9.2863 22.2632 8.69409C22.4146 8.564 22.557 8.42873 22.6871 8.28634ZM22.8748 11.162C22.3622 11.4804 21.7862 11.7542 21.161 11.9736C20.9648 11.1801 20.7247 10.4299 20.4671 9.74454C20.882 9.58467 21.2626 9.38986 21.6108 9.1698C22.0502 9.75878 22.4916 10.4306 22.8748 11.162ZM22.0489 7.82423C21.9661 7.91225 21.871 7.99315 21.7771 8.07535C21.5351 7.78086 21.3001 7.51291 21.0788 7.27409C21.4134 7.43848 21.7396 7.62035 22.0489 7.82423ZM19.2646 6.61457C19.4769 6.79838 20.2555 7.49803 21.1228 8.55171C20.8348 8.7271 20.5176 8.88244 20.1772 9.01253C19.7448 7.97438 19.3015 7.12587 18.9759 6.54984C19.073 6.57056 19.1688 6.59127 19.2646 6.61457ZM17.6608 6.37768C17.7611 6.38351 17.8621 6.38998 17.9604 6.39839C18.2284 6.83592 18.8238 7.86759 19.4044 9.25071C18.8148 9.39892 18.1773 9.48306 17.508 9.48306C17.5067 9.48306 17.5061 9.48306 17.5061 9.48306C17.5669 8.03652 17.6278 6.93494 17.6608 6.37768ZM17.4731 10.2785C17.4854 10.2785 17.497 10.2798 17.5087 10.2798C18.2815 10.2798 19.0193 10.1749 19.7002 9.99178C19.9571 10.6733 20.1992 11.4202 20.3927 12.2079C19.4989 12.4422 18.5274 12.5742 17.5087 12.5742C17.4711 12.5742 17.4342 12.5716 17.3961 12.571C17.4194 11.7555 17.4459 10.9853 17.4731 10.2785ZM17.2686 13.3211C20.3435 13.3289 22.6483 12.2189 23.2152 11.8739C23.478 12.4713 23.7952 13.6059 23.8308 13.756C23.8663 13.9062 23.9699 14.2855 23.9641 14.5851C23.9583 14.8848 23.9375 16.6064 23.7919 17.2433C23.1376 17.5494 20.3293 18.6225 17.3611 18.6277C14.3923 18.6329 11.4423 17.6174 10.7264 17.2905C10.5743 16.6394 10.4889 14.622 10.6656 13.8117C10.7413 13.5489 11.0863 12.3088 11.4092 11.6202C11.9374 11.9833 13.9114 13.0862 17.2686 13.3211ZM16.6874 21.8211C16.0654 21.7984 15.4557 21.7453 14.8609 21.6619C14.5729 20.9376 14.2855 20.0865 14.0622 19.1455C14.8745 19.2937 15.7198 19.3862 16.5877 19.416C16.6155 20.2852 16.6505 21.0994 16.6874 21.8211ZM13.9425 21.5111C13.4428 21.4153 12.9561 21.2988 12.4836 21.1628C11.9283 20.337 11.3866 19.3558 11.0106 18.2672C11.6992 18.5461 12.4299 18.7778 13.1969 18.961C13.3969 19.9046 13.6635 20.7596 13.9425 21.5111ZM11.7704 10.9147C12.171 10.1866 12.6247 9.52448 13.072 8.94781C13.3762 9.1711 13.7147 9.3698 14.0816 9.5439C13.8169 10.23 13.5651 10.9827 13.3587 11.7833C12.7723 11.5399 12.2396 11.2474 11.7704 10.9147ZM14.1153 12.0616C14.3179 11.2707 14.5658 10.5251 14.8285 9.8455C15.4013 10.041 16.0227 10.1769 16.6776 10.239C16.6498 10.9477 16.6233 11.7186 16.6 12.5354C15.7198 12.4681 14.8829 12.3062 14.1153 12.0616ZM16.8634 6.36862C16.8297 6.93947 16.7702 8.02745 16.7107 9.44358C16.1482 9.38792 15.6188 9.27012 15.1288 9.10896C15.6965 7.78151 16.2679 6.79708 16.5217 6.38221C16.6343 6.37445 16.7488 6.37251 16.8634 6.36862ZM15.2965 6.55761C15.369 6.54208 15.4427 6.52784 15.5159 6.51425C15.2084 7.05338 14.7936 7.8417 14.38 8.8093C14.0868 8.66885 13.8092 8.51546 13.5645 8.33942C14.4965 7.24302 15.2835 6.58156 15.3029 6.56603L15.2965 6.55761ZM13.5794 7.11487C13.3846 7.32004 13.1768 7.55045 12.9613 7.80287C12.881 7.71743 12.7962 7.63265 12.7276 7.54269C13.0021 7.38412 13.2875 7.24432 13.5794 7.11487ZM12.0623 7.96467C12.1807 8.1226 12.3134 8.27469 12.4571 8.41967C12.0047 8.99958 11.5445 9.66558 11.1316 10.4002C10.8332 10.1245 10.5711 9.83127 10.3569 9.5193C10.8552 8.93033 11.4287 8.40802 12.0623 7.96467ZM9.85397 10.1711C10.1109 10.5076 10.4151 10.8235 10.7575 11.1186C10.4203 11.8144 10.1375 12.5606 9.95041 13.3457C9.50318 13.024 9.10125 12.6739 8.75628 12.2978C9.02682 11.5361 9.39768 10.8222 9.85397 10.1711ZM8.2631 15.7734C8.25274 15.6038 8.24692 15.4336 8.24692 15.2615C8.24692 14.5353 8.33688 13.8292 8.50192 13.1528C8.88572 13.5237 9.31872 13.868 9.79184 14.1838C9.74265 14.532 9.71093 14.8861 9.70446 15.2459C9.6954 15.7896 9.74071 16.3184 9.82355 16.8316C9.25464 16.5132 8.72974 16.1592 8.2631 15.7734ZM9.63974 20.0315C9.03264 19.0788 8.60159 18.0063 8.39254 16.8556C8.89673 17.2135 9.44881 17.5397 10.0378 17.8316C10.3277 18.9125 10.7801 19.9033 11.2843 20.7706C10.707 20.5519 10.1556 20.3053 9.63974 20.0315ZM10.7025 21.3887C11.1083 21.5531 11.5309 21.6987 11.9626 21.8327C12.2985 22.313 12.6344 22.7388 12.9406 23.0993C12.107 22.6476 11.351 22.0703 10.7025 21.3887ZM14.7431 23.8294C14.6382 23.7349 13.9852 23.1343 13.2208 22.1712C13.569 22.2508 13.925 22.3194 14.2855 22.379C14.5528 23.0068 14.8111 23.5213 15.0162 23.9019C14.925 23.8792 14.8337 23.8553 14.7431 23.8294ZM16.044 24.0928C15.9062 23.8644 15.5858 23.309 15.222 22.511C15.7172 22.568 16.2194 22.6055 16.7307 22.6236C16.7663 23.2411 16.8006 23.7634 16.8284 24.1569C16.5644 24.1472 16.3023 24.1239 16.044 24.0928Z" fill="#00397B" stroke="#00397B" stroke-width="0.00256"/>
<path id="Vector_5" d="M15.496 16.5984H13.8754V16.5932C14.0443 16.4909 14.221 16.3906 14.4054 16.2948C14.5905 16.1997 14.7608 16.0916 14.9154 15.9725C15.0695 15.8547 15.1963 15.7162 15.2954 15.5583C15.395 15.401 15.4449 15.2062 15.4449 14.9771C15.4449 14.7887 15.4093 14.6224 15.3387 14.48C15.2701 14.3376 15.1692 14.2205 15.041 14.1279C14.9122 14.0354 14.7575 13.9655 14.5769 13.9195C14.3977 13.8736 14.199 13.8496 13.9834 13.8496C13.7427 13.8496 13.5259 13.8852 13.3317 13.9525C13.1388 14.0211 12.9738 14.1221 12.8404 14.2541C12.7071 14.3868 12.6074 14.548 12.5414 14.7402C12.4761 14.9331 12.4508 15.1531 12.4657 15.3997H13.4327C13.4255 15.1797 13.4624 15.0023 13.5433 14.867C13.6229 14.7311 13.7666 14.6638 13.9731 14.6638C14.0935 14.6638 14.1951 14.6949 14.2786 14.7596C14.3634 14.8224 14.4048 14.9363 14.4048 15.1007C14.4048 15.1661 14.3886 15.2243 14.3562 15.2761C14.3239 15.3279 14.2825 15.3738 14.2326 15.4146C14.1834 15.456 14.1304 15.4942 14.0734 15.5285C14.0164 15.5628 13.966 15.5945 13.9213 15.6224C13.8093 15.6897 13.6922 15.7589 13.5725 15.8308C13.4514 15.8994 13.3362 15.9738 13.2249 16.0521C13.1129 16.1278 13.0087 16.2113 12.9103 16.3013C12.8139 16.3906 12.7265 16.4857 12.6515 16.5893C12.5621 16.7097 12.4948 16.8437 12.4489 16.9912C12.4029 17.1381 12.3842 17.3 12.3952 17.4741H15.4966L15.496 16.5984Z" fill="#00397B" stroke="#00397B" stroke-width="0.00256"/>
<path id="Vector_6" d="M17.3954 17.474H18.4659V16.764H18.9494V15.8883H18.4659V13.8916H17.4414L15.8052 15.7957V16.7633H17.3954V17.474ZM16.5204 15.8889L17.3954 14.8851V15.8889H16.5204Z" fill="#00397B" stroke="#00397B" stroke-width="0.00256"/>
<path id="Vector_7" d="M20.3851 16.0635C20.3851 15.9573 20.3987 15.8706 20.4252 15.8052C20.4511 15.7379 20.4828 15.6842 20.5217 15.6486C20.5618 15.6091 20.6052 15.5839 20.6531 15.5703C20.7003 15.5567 20.7476 15.5502 20.7922 15.5502C20.8679 15.5502 20.9262 15.5638 20.9696 15.5897C21.0116 15.6149 21.0453 15.6518 21.0692 15.6984C21.0938 15.7437 21.1094 15.7994 21.1145 15.8654C21.1223 15.9308 21.1262 16.0007 21.1262 16.0764V17.4751H22.1449V15.6434C22.1449 15.4887 22.1197 15.3554 22.0705 15.2415C22.0206 15.1282 21.952 15.035 21.8679 14.9613C21.7818 14.8875 21.6841 14.8318 21.5741 14.7936C21.464 14.7554 21.3482 14.7367 21.2304 14.7367C21.0142 14.7367 20.8408 14.771 20.7158 14.837C20.589 14.9043 20.4822 14.9884 20.3968 15.092H20.3851V13.8008H19.3677V17.4751H20.3851V16.0635Z" fill="#00397B" stroke="#00397B" stroke-width="0.00256"/>
</g>
</g>
</g>
</g>
<defs>
<clipPath id="clip0_700_1777">
<rect width="32" height="32" fill="white" transform="translate(0.5)"/>
</clipPath>
</defs>
</svg>
